<?xml version="1.0" encoding="UTF-8"?>
<!DOCTYPE svg PUBLIC "-//W3C//DTD SVG 1.1//EN" "http://www.w3.org/Graphics/SVG/1.1/DTD/svg11.dtd">
<!-- Creator: CorelDRAW -->
<svg xmlns="http://www.w3.org/2000/svg" xml:space="preserve" width="100%" height="100%" version="1.1" style="shape-rendering:geometricPrecision; text-rendering:geometricPrecision; image-rendering:optimizeQuality; fill-rule:evenodd; clip-rule:evenodd"
viewBox="0 0 15867.15 7010.95"
 xmlns:xlink="http://www.w3.org/1999/xlink"
 xmlns:xodm="http://www.corel.com/coreldraw/odm/2003">
 <defs>
  <style type="text/css">
   <![CDATA[
    .fil1 {fill:#F7F5FB}
    .fil0 {fill:#F7F5FB;fill-rule:nonzero}
   ]]>
  </style>
 </defs>
 <g id="Camada_x0020_1">
  <metadata id="CorelCorpID_0Corel-Layer"/>
  <g id="_2868386622176">
   <path class="fil0" d="M5532.33 1876.08l1.86 -41.71c6.97,-170.28 9.65,-342.47 8,-516.52 -1.19,-126.7 -4.82,-257.71 -10.86,-393.03l-2583.38 -538.22c-186.06,41.25 -489.69,105.8 -911.22,194.26 -427.1,89.64 -976.75,204.2 -1647.53,343.95 -60.24,1368.84 124.61,2524.32 553.15,3467.16 425.67,936.52 1094.86,1665.62 2006.07,2188.06 341.22,-190.92 649.3,-411.49 924.13,-661.66 297.4,-270.72 555.02,-575.88 772.73,-915.39l318.27 204.29c-235.76,367.63 -514.59,697.95 -836.39,990.88 -320.36,291.63 -684.24,546.46 -1091.5,764.41l-90.41 48.39 -89.44 -49.13c-1030.46,-565.88 -1783.84,-1370.39 -2258.37,-2414.41 -468.73,-1031.27 -662.14,-2293.72 -578.49,-3788.21l8.11 -145.06 142.14 -29.62c736.06,-153.34 1333.48,-277.81 1790.55,-373.74 460.63,-96.67 777.1,-163.98 945.64,-201.76l40.22 -9.02 2947.75 614.14 8.14 145.06c10.35,184.78 16.41,370.02 18.17,555.69 1.74,183.68 -0.94,361.78 -8.01,534.28l-1.86 43.19 -377.47 -16.28z"/>
   <path class="fil0" d="M15248.17 3893.02c48.01,0 126.73,-0.29 177.23,-0.29 0,-50.99 0.83,-166.89 0.83,-219.08l440.92 0 0 686.96 -1795.92 0 0 -467.59c74,0 119.49,-0.29 210.72,-0.29 0,-97.46 0,-786.74 0,-921.61 -31.85,0 -136.73,0.49 -210.72,0.49l0 -467.16 1795.92 0 0 686.53 -440.92 0c-0.29,-73.28 -0.54,-146.55 -0.86,-219.86 -134.64,0 -269.25,0.49 -403.88,0.49l0 335.5 402.16 0 0 222.84 -402.16 0 0 363.06 226.68 0 0 0.01z"/>
   <path class="fil0" d="M13301.22 2971.61c-74,0 0,0 -205.63,0 0,307.09 0,614.26 0,921.41 144.55,0 286.95,0 431.04,0 4.3,-161.34 0,-229.26 0,-295.95l440.9 0 0 763.54 -1822.19 0 0 -467.59c73.99,0 111.4,0 206.88,0 0,-307.15 0,-614.26 0,-921.41 -113.67,0 -132.89,0 -206.88,0l0 -467.16 1155.88 0 0 467.16z"/>
   <path class="fil0" d="M11990.48 2966.82c0,268.88 -139.83,416.01 -419.9,440.95l0 13.78c146.3,3.44 261.57,43.46 345.45,120.03 83.87,76.11 126.07,186.66 126.07,331.24 0,60.64 -7.34,119.97 -21.52,178.49 -14.2,58.07 -45.17,110.15 -92.49,155.75 -47.78,45.14 -116.16,82.13 -205.63,110.52 -89.49,28.82 -209.95,43.03 -360.91,43.03l-1386.45 0 0 -467.6c73.99,0 84.96,0 206.91,0 0,-306.34 0,-614.03 0,-921.41 -123,0 -132.92,0 -206.91,0l0 -467.16 1473.31 0c115.73,0 209.51,12.86 280.93,38.67 71.42,26.27 126.48,60.65 165.17,103.7 38.76,42.6 64.12,92.01 77.03,147.96 12.46,55.95 18.94,113.16 18.94,172.05zm-1065.13 342.88l190.58 0c52.03,0 89.44,-16.79 112.67,-49.91 22.83,-33.11 34.43,-73.13 34.43,-120.43 0,-44.34 -11.6,-83.47 -34.43,-116.99 -23.23,-34.03 -60.64,-50.76 -112.67,-50.76l-190.58 0 0 338.09zm188.01 583.32c70.52,0 119.14,-13.75 145.81,-40.88 27.1,-27.5 40.42,-73.14 40.42,-136.76 0,-63.71 -13.32,-110.17 -40.42,-139.42 -26.67,-28.79 -75.29,-43.4 -145.81,-43.4l-188.01 0 0 360.45 188.01 0 0 0.01z"/>
   <path class="fil0" d="M7665.03 3434.45c0,-162.2 26.67,-304.57 80.04,-426.75 53.77,-122.15 129.05,-224.53 226.25,-306.68 97.65,-82.59 213.38,-144.12 347.16,-185.43 134.24,-41.31 282.2,-61.9 444.36,-61.9 161.31,0 309.32,20.59 443.53,61.9 134.67,41.31 250.34,102.84 347.59,185.43 96.77,82.16 172.08,184.54 225.42,306.68 53.34,122.18 80.01,264.55 80.01,426.75 0,161.31 -26.67,302.82 -80.01,425.02 -53.34,122.58 -128.65,224.96 -225.42,307.58 -97.25,82.98 -212.92,144.97 -347.59,185.83 -134.21,41.28 -282.22,61.93 -443.53,61.93 -162.17,0 -310.13,-20.65 -444.36,-61.93 -133.78,-40.86 -249.51,-102.85 -347.16,-185.83 -97.2,-82.62 -172.48,-185 -226.25,-307.58 -53.37,-122.2 -80.04,-263.71 -80.04,-425.02zm847.07 0c0,101.52 3.84,186.72 11.6,255.12 7.31,68.38 20.66,123.87 39.53,166.47 18.93,42.14 44.34,73.13 76.17,92.04 31.83,18.51 73.14,27.99 123.44,27.99 48.18,0 88.2,-9.49 120.89,-27.99 33.12,-18.91 58.93,-49.9 77.86,-92.04 18.96,-42.6 31.83,-98.09 39.62,-166.47 7.27,-68.41 11.14,-153.6 11.14,-255.12 0,-100.21 -3.86,-184.94 -11.14,-254.67 -7.79,-69.69 -20.66,-125.61 -39.62,-167.75 -18.93,-41.74 -44.74,-72.28 -77.86,-91.24 -32.68,-18.91 -72.7,-28.36 -120.89,-28.36 -50.3,0 -91.61,9.45 -123.44,28.36 -31.83,18.96 -57.24,49.5 -76.17,91.24 -18.88,42.14 -32.23,98.06 -39.53,167.75 -7.76,69.73 -11.6,154.46 -11.6,254.67z"/>
   <path class="fil0" d="M7575.6 2504.45l0 467.16c-74,0 -104.7,0 -180.24,0 0,462.98 0,926.02 0,1389l-757.13 0 -658.18 -1029.8c0,188.6 -2.98,373.92 6.08,562.21 200.86,0 126.84,0 200.86,0l0 467.59 -867.23 0 0 -467.59c73.99,0 76.8,0 206.91,0 0,-307.15 0,-614.26 0,-921.41 -112.47,0 -132.92,0 -206.91,0l0 -467.16 990.67 0 630.22 986.37c0,-173.08 0,-346.19 0,-519.22 -74.97,0 -106.25,0 -180.27,0l0 -467.16 815.21 0 0.01 0.01z"/>
   <polygon class="fil1" points="3373.84,2310.57 2888.57,1790.15 4663.53,1790.15 4663.53,2310.57 "/>
   <path class="fil1" d="M1277.36 4044.24l433.8 949 0 -2364.18 2371.34 2542.96c549.55,-787.46 581.03,-1383.5 581.03,-2146.24l-973.98 0 -1152.2 -1235.63 -593.16 0 1556.76 1669.43 718.62 0c-22.37,381.71 -97.63,708.73 -225.82,981.22l-2471.74 -2650.65 -244.64 0 0 2254.1 -0.01 -0.01z"/>
   <polygon class="fil1" points="2711.51,4816.72 3304.66,4816.72 1843.9,3250.25 1843.9,3886.34 "/>
   <path class="fil0" d="M12996.39 5366.84c-56.03,0 -109.71,-7.53 -161.08,-22.51 -51.39,-15.01 -92.76,-34.55 -124.09,-58.53l55.06 -122.09c29.99,21.34 65.51,38.85 106.53,52.51 41.05,13.69 82.59,20.54 124.58,20.54 32.03,0 57.87,-3.18 77.58,-9.48 19.65,-6.39 34.14,-15.21 43.48,-26.53 9.37,-11.37 14.04,-24.38 14.04,-39.01 0,-18.68 -7.34,-33.55 -22,-44.58 -14.73,-10.97 -34.06,-19.99 -58.04,-26.98 -24.03,-7.02 -50.56,-13.67 -79.55,-20.03 -29.05,-6.35 -58.04,-14.18 -87.08,-23.51 -28.99,-9.34 -55.49,-21.34 -79.52,-36.04 -24.04,-14.64 -43.52,-34 -58.56,-58.01 -14.98,-24 -22.52,-54.68 -22.52,-92.07 0,-40.02 10.86,-76.54 32.55,-109.54 21.66,-33.03 54.37,-59.36 98.06,-79.07 43.65,-19.65 98.57,-29.51 164.57,-29.51 44.03,0 87.43,5.19 130.11,15.5 42.66,10.34 80.38,25.87 113.07,46.52l-50.05 123.07c-32.71,-18.65 -65.4,-32.49 -98.06,-41.48 -32.68,-9 -64.71,-13.52 -96.08,-13.52 -31.34,0 -57.03,3.66 -77,11 -20.05,7.36 -34.4,16.87 -43.05,28.53 -8.68,11.66 -13.01,25.15 -13.01,40.53 0,17.99 7.34,32.51 22,43.49 14.7,11.02 34.06,19.88 58.04,26.52 24.03,6.7 50.56,13.32 79.55,20.03 29.05,6.64 58.04,14.32 87.08,23.03 28.99,8.65 55.49,20.34 79.52,35 24.04,14.64 43.52,34.01 58.56,58.04 15.01,23.98 22.51,54.34 22.51,91.04 0,39.33 -11.05,75.37 -33.05,108.05 -22,32.71 -54.83,59.07 -98.55,79.03 -43.71,20.05 -98.91,30.05 -165.6,30.05l0 0.01zm397.24 -12.03l0 -742.4 156.1 0 0 353.21 -35.04 -45.03c19.4,-36.04 47.07,-63.71 83.08,-83.07 36.04,-19.37 77.03,-29 123.06,-29 42.69,0 80.9,8.51 114.56,25.5 33.72,16.98 60.25,43 79.59,78.06 19.3,35 28.99,79.86 28.99,134.55l0 308.18 -156.1 0 0 -284.14c0,-43.34 -9.51,-75.37 -28.53,-96.08 -18.96,-20.69 -45.8,-31.03 -80.5,-31.03 -24.69,0 -46.89,5.19 -66.57,15.53 -19.65,10.37 -35.03,26.18 -46,47.52 -11.03,21.38 -16.53,48.7 -16.53,82.07l0 266.13 -156.1 0 -0.01 0zm691.41 0l0 -538.29 156.09 0 0 538.29 -156.09 0zm78.06 -613.32c-28.7,0 -52.02,-8.36 -70.04,-25.06 -17.99,-16.67 -27.02,-37.33 -27.02,-62.02 0,-24.67 9.03,-45.38 27.02,-62.05 18.02,-16.64 41.33,-24.98 70.04,-24.98 28.7,0 52.02,7.82 70.01,23.52 18.02,15.64 27.01,35.81 27.01,60.53 0,25.98 -8.82,47.49 -26.49,64.54 -17.68,17.01 -41.2,25.52 -70.53,25.52zm490.28 621.31c-61.33,0 -115.21,-12 -161.59,-35.98 -46.33,-24 -82.19,-56.89 -107.57,-98.57 -25.36,-41.68 -37.99,-89.21 -37.99,-142.58 0,-54.02 12.46,-101.92 37.53,-143.57 25.01,-41.74 59.15,-74.43 102.55,-98.06 43.34,-23.72 92.39,-35.52 147.04,-35.52 52.74,0 100.24,11.14 142.63,33.49 42.34,22.34 75.89,54.37 100.55,96.08 24.69,41.65 37.01,91.52 37.01,149.56 0,6.05 -0.32,12.83 -1,20.54 -0.69,7.68 -1.35,14.81 -2.01,21.51l-437.26 0 0 -91.09 355.25 0 -60.07 27.04c0,-28.01 -5.65,-52.33 -17.02,-73.05 -11.31,-20.68 -27.01,-36.83 -47.01,-48.52 -20.02,-11.66 -43.37,-17.53 -70.07,-17.53 -26.67,0 -50.16,5.87 -70.52,17.53 -20.31,11.69 -36.18,28.01 -47.5,49.01 -11.37,21.06 -17.01,45.86 -17.01,74.57l0 24.01c0,29.36 6.47,55.22 19.47,77.57 13.01,22.34 31.34,39.33 55.06,50.99 23.69,11.72 51.51,17.5 83.53,17.5 28.7,0 53.86,-4.32 75.54,-13 21.68,-8.65 41.53,-21.69 59.55,-39.02l83.02 90.07c-24.63,28.05 -55.66,49.56 -93.04,64.57 -37.33,14.95 -80.38,22.46 -129.08,22.46l0.01 -0.01zm364.21 -7.99l0 -742.4 156.1 0 0 742.4 -156.1 0zm532.34 7.99c-50.71,0 -96.37,-11.49 -137.07,-34.52 -40.68,-23.01 -72.91,-55.2 -96.54,-96.51 -23.69,-41.39 -35.55,-90.06 -35.55,-146.1 0,-56.72 11.86,-105.76 35.55,-147.07 23.63,-41.36 55.86,-73.39 96.54,-96.1 40.7,-22.66 86.36,-33.98 137.07,-33.98 45.37,0 85.05,9.97 119.05,30 34.06,19.99 60.39,50.39 79.07,91.06 18.64,40.71 27.98,92.73 27.98,156.09 0,62.71 -8.99,114.56 -27.01,155.61 -17.96,41.02 -43.86,71.53 -77.52,91.53 -33.71,20.02 -74.22,29.99 -121.57,29.99l0 0zm27.01 -128.05c25.32,0 48.35,-5.98 69.07,-18.01 20.68,-11.98 37.15,-29.17 49.5,-51.51 12.34,-22.35 18.51,-48.87 18.51,-79.55 0,-31.34 -6.16,-58.04 -18.51,-80.04 -12.35,-22.05 -28.82,-39.04 -49.5,-51.04 -20.72,-12.01 -43.75,-18.02 -69.07,-18.02 -26.01,0 -49.36,6.01 -70.01,18.02 -20.71,12 -37.21,28.99 -49.53,51.04 -12.34,22 -18.54,48.7 -18.54,80.04 0,30.68 6.19,57.2 18.54,79.55 12.32,22.34 28.82,39.53 49.53,51.51 20.66,12.03 44,18.01 70.01,18.01zm141.08 120.06l0 -110.03 3.01 -160.1 -9.99 -159.13 0 -313.13 156.09 0 0 742.4 -149.1 0 -0.01 -0.01z"/>
   <path class="fil0" d="M12813.31 6068.94c-27.24,0 -54.02,-3.04 -80.46,-9.23 -26.42,-6.1 -50.28,-14.66 -71.62,-25.61 -21.37,-10.94 -38.44,-23.09 -51.24,-36.41l28.79 -46.43c12.8,13.34 28.73,25.12 47.64,35.23 18.93,10.14 39.87,17.99 62.85,23.63 22.91,5.59 45.89,8.36 68.81,8.36 33.09,0 62.04,-4.24 86.85,-12.8 24.87,-8.51 44.18,-21.06 58.04,-37.62 13.92,-16.53 20.86,-36.55 20.86,-60.01 0,-18.68 -5.36,-33.74 -16.04,-45.26 -10.66,-11.46 -24.53,-20.8 -41.63,-27.99 -17.07,-7.22 -36.01,-13.72 -56.8,-19.59 -20.83,-5.88 -41.63,-12.29 -62.48,-19.23 -20.8,-6.93 -39.88,-15.49 -57.24,-25.61 -17.33,-10.16 -31.2,-23.51 -41.6,-40.01 -10.4,-16.59 -15.61,-37.39 -15.61,-62.48 0,-35.21 9.6,-65.49 28.79,-90.84 19.22,-25.32 45.63,-44.69 79.29,-58.04 33.6,-13.32 72.31,-20.02 116.02,-20.02 33.09,0 65.03,4.03 95.71,12.03 30.68,7.99 56.7,20 78.01,36.04l-24.78 48.01c-20.28,-14.93 -43.48,-26.3 -69.64,-34.01 -26.18,-7.73 -53.65,-11.6 -82.47,-11.6 -32.57,0 -61.1,4.53 -85.63,13.58 -24.54,9.05 -43.62,22 -57.26,38.81 -13.58,16.82 -20.42,36.98 -20.42,60.44 0,18.71 5.24,33.92 15.64,45.61 10.4,11.74 24.29,21.4 41.62,28.85 17.36,7.47 36.41,14.26 57.21,20.42 20.82,6.1 41.62,12.51 62.48,19.16 20.79,6.7 39.87,14.98 57.2,24.87 17.33,9.85 31.37,22.66 42.05,38.41 10.63,15.73 15.99,35.89 15.99,60.41 0,35.79 -9.86,66.29 -29.62,91.64 -19.74,25.38 -46.81,44.6 -81.24,57.64 -34.44,13.06 -73.79,19.62 -118.06,19.62l-0.01 0.03zm509.08 -0.78c-40.05,0 -74.85,-7.37 -104.47,-22.03 -29.62,-14.66 -52.31,-35.35 -68.04,-62.02 -15.75,-26.72 -23.6,-58.46 -23.6,-95.28 0,-48.04 10.17,-90.72 30.42,-128.08 20.29,-37.32 48.04,-66.83 83.25,-88.43 35.23,-21.66 74.97,-32.43 119.28,-32.43 37.33,0 69.64,7.07 96.85,21.2 27.22,14.15 48.42,34.58 63.63,61.25 15.24,26.69 22.83,58.66 22.83,96.05 0,8.53 -0.54,17.18 -1.6,26.01 -1.09,8.79 -2.41,17.22 -4.04,25.24l-368.99 0 7.22 -42.43 335.39 0 -23.21 15.99c5.33,-33.63 2.92,-61.9 -7.24,-84.83 -10.11,-22.97 -25.7,-40.44 -46.81,-52.42 -21.09,-12.03 -46.27,-18.02 -75.66,-18.02 -34.14,0 -64.54,8.36 -91.21,25.18 -26.7,16.85 -47.5,40.02 -62.48,69.64 -14.92,29.62 -22.37,64.2 -22.37,103.7 0,42.11 12.12,74.54 36.38,97.22 24.29,22.66 60.73,34.04 109.29,34.04 28.27,0 54.42,-4.67 78.46,-14.01 23.97,-9.34 43.71,-22.29 59.18,-38.82l25.63 40.79c-19.76,19.74 -44.42,35.12 -74.05,46.07 -29.62,10.91 -60.96,16.41 -94.04,16.41l0 0.01zm481.91 0c-40.01,0 -74.62,-7.37 -103.69,-22.03 -29.05,-14.66 -51.51,-35.35 -67.24,-62.02 -15.75,-26.72 -23.6,-58.18 -23.6,-94.5 0,-48.01 10.4,-90.81 31.19,-128.42 20.83,-37.64 49.79,-67.26 86.86,-88.86 37.13,-21.66 79.41,-32.43 126.9,-32.43 38.96,0 72.45,7.08 100.46,21.2 27.99,14.16 49.76,35.12 65.2,62.85l-48.01 28.02c-11.74,-21.38 -27.9,-37.07 -48.44,-47.24 -20.51,-10.11 -45.23,-15.21 -74.02,-15.21 -35.21,0 -66.72,8.57 -94.45,25.61 -27.73,17.1 -49.53,40.42 -65.25,70.04 -15.76,29.62 -23.61,63.65 -23.61,102.1 0,41.07 12.12,73.07 36.41,96.05 24.29,22.91 58.87,34.4 103.7,34.4 27.21,0 52.39,-5.18 75.59,-15.64 23.24,-10.4 42.32,-25.47 57.27,-45.21l40.79 31.23c-18.1,25.06 -42.94,44.71 -74.4,58.81 -31.51,14.18 -65.4,21.25 -101.66,21.25l0 0zm436.26 0c-36.87,0 -67.4,-7.48 -91.67,-22.46 -24.26,-14.93 -40.93,-36.24 -50.05,-64 -9.05,-27.78 -10.11,-60.58 -3.18,-98.48l48.05 -239.32 56.83 0 -48.04 239.32c-8,41.65 -3.47,74.3 13.57,98.05 17.1,23.75 46.95,35.64 89.7,35.64 44.26,0 81.24,-12.29 110.86,-36.84 29.61,-24.52 49.47,-61.35 59.64,-110.43l44.8 -225.73 56.84 0 -84.08 420.24 -54.43 0 24.04 -120.86 12 19.96c-19.77,36.33 -45.78,62.86 -78.03,79.67 -32.31,16.79 -67.9,25.24 -106.85,25.24l0 0zm361.78 -4.01l83.27 -420.24 54.43 0 -24.01 124.07 -6.38 -21.63c18.64,-36.81 43.34,-63.77 74.02,-80.84 30.68,-17.07 68.96,-25.61 114.87,-25.61l-10.4 55.2c-2.66,0 -5.21,-0.08 -7.62,-0.4 -2.4,-0.23 -5.21,-0.37 -8.39,-0.37 -44.84,0 -81.82,12.95 -110.86,38.81 -29.08,25.87 -48.99,64.97 -59.67,117.28l-42.43 213.73 -56.83 0 0 0zm314.59 0l83.27 -420.24 56.83 0 -83.27 420.24 -56.83 0zm135.3 -513.08c-11.23,0 -20.43,-3.78 -27.59,-11.26 -7.25,-7.44 -10.86,-16.27 -10.86,-26.38 0,-11.74 4.16,-21.92 12.44,-30.45 8.28,-8.51 18.82,-12.8 31.62,-12.8 11.72,0 21.2,3.46 28.42,10.42 7.19,6.93 10.8,15.73 10.8,26.45 0,12.8 -4.15,23.34 -12.43,31.56 -8.23,8.31 -19.08,12.46 -32.4,12.46l0 0zm213.76 517.09c-24.04,0 -44.58,-5.22 -61.68,-15.62 -17.05,-10.4 -28.93,-25.23 -35.58,-44.46 -6.7,-19.22 -7.36,-42.14 -2.03,-68.81l76.86 -388.21 56.83 0 -76.86 385.8c-5.33,26.16 -3.32,46.44 6.02,60.82 9.34,14.41 26.55,21.62 51.65,21.62 11.74,0 23.2,-1.72 34.38,-5.18 11.2,-3.49 21.37,-8.97 30.45,-16.44l13.6 43.25c-13.37,10.11 -28.3,17.19 -44.83,21.2 -16.56,3.98 -32.83,6.02 -48.81,6.02l0 0.01zm-124.9 -377.04l8.82 -47.21 260.16 0 -9.65 47.21 -259.34 0 0.01 0zm266.58 532.3c-19.74,0 -38.73,-3.32 -56.83,-10.02 -18.17,-6.62 -32.55,-15.85 -43.26,-27.59l30.45 -41.62c9.05,9.59 19.74,17.04 32.03,22.4 12.23,5.35 26.13,7.99 41.62,7.99 18.14,0 34.81,-4.9 50.02,-14.79 15.18,-9.85 31.05,-27.64 47.63,-53.25l42.43 -64.82 7.16 -7.99 249.77 -389.83 58.44 0 -307.38 474.67c-17.61,26.7 -34.14,47.64 -49.64,62.85 -15.47,15.18 -31.37,26.01 -47.63,32.4 -16.27,6.42 -34.53,9.6 -54.81,9.6l0 0zm134.47 -147.27l-108.09 -432.24 57.67 0 94.42 385.81 -44 46.43z"/>
  </g>
 </g>
</svg>
