<?xml version="1.0" encoding="UTF-8"?>
<!DOCTYPE svg PUBLIC "-//W3C//DTD SVG 1.1//EN" "http://www.w3.org/Graphics/SVG/1.1/DTD/svg11.dtd">
<!-- Creator: CorelDRAW -->
<svg xmlns="http://www.w3.org/2000/svg" xml:space="preserve" width="100%" height="100%" version="1.1" style="shape-rendering:geometricPrecision; text-rendering:geometricPrecision; image-rendering:optimizeQuality; fill-rule:evenodd; clip-rule:evenodd"
viewBox="0 0 4434.3 5280.79"
 xmlns:xlink="http://www.w3.org/1999/xlink"
 xmlns:xodm="http://www.corel.com/coreldraw/odm/2003">
 <defs>
  <style type="text/css">
   <![CDATA[
    .str0 {stroke:#0A1E2E;stroke-width:26.45;stroke-miterlimit:22.9256}
    .fil0 {fill:#0A1E2E}
    .fil1 {fill:white}
   ]]>
  </style>
 </defs>
 <g id="Camada_x0020_1">
  <metadata id="CorelCorpID_0Corel-Layer"/>
  <path class="fil0 str0" d="M2206.48 5265.75c1594.24,-853.18 2331.21,-2453.03 2200.2,-4793.84 -1201.01,-250.21 -1937.96,-403.76 -2200.21,-458.38 -278.02,62.35 -1007.86,214.42 -2178.87,458.38 -130.42,2330.41 599.43,3926.44 2178.88,4793.84z"/>
  <polygon class="fil1" points="2536.82,1712.1 2152.3,1299.75 3558.73,1299.75 3558.73,1712.1 "/>
  <path class="fil1" d="M875.54 3085.87l343.74 751.98 0 -1873.36 1879.06 2015.04c435.47,-624 460.39,-1096.32 460.39,-1700.69l-771.77 0 -913.01 -979.09 -470.01 0 1233.57 1322.83 569.45 0c-17.71,302.44 -77.37,561.61 -178.95,777.52l-1958.61 -2100.35 -193.86 0 0 1786.12z"/>
  <polygon class="fil1" points="2012,3697.98 2482,3697.98 1324.5,2456.71 1324.5,2960.74 "/>
 </g>
</svg>
